<svg width="200" height="40" viewBox="0 0 200 40" fill="none" xmlns="http://www.w3.org/2000/svg">
<g clip-path="url(#clip0_121_81)">
<rect width="200" height="40" fill="white"/>
<path fill-rule="evenodd" clip-rule="evenodd" d="M10.9907 10.0784C14.7663 3.53904 22.9903 1.21888 29.3596 4.89622C35.729 8.57356 37.8317 16.8559 34.0561 23.3953C32.5983 25.9203 30.4773 27.8162 28.0559 28.9808L26.6914 36.9318C26.4638 38.258 24.6024 38.39 24.1533 37.1117L21.766 30.3163C21.7533 30.3159 21.7406 30.3155 21.7279 30.315L21.7513 30.2745L21.7508 30.2733L11.1936 24.178L11.1674 24.2232C11.1589 24.2097 11.1505 24.1961 11.142 24.1826L4.06333 25.5128C2.73178 25.763 1.91536 24.085 2.95012 23.2247L9.15367 18.0675C8.9515 15.3883 9.53293 12.6034 10.9907 10.0784ZM30.1838 16.6489C30.1161 22.6241 23.6901 26.4319 18.617 23.5029C13.544 20.574 13.6286 13.105 18.7694 10.0588C23.9102 7.01251 30.2516 10.6737 30.1838 16.6489Z" fill="#F22233"/>
</g>
<defs>
<clipPath id="clip0_121_81">
<rect width="200" height="40" fill="white"/>
</clipPath>
</defs>
</svg>
