<svg xmlns="http://www.w3.org/2000/svg" xmlns:xlink="http://www.w3.org/1999/xlink" width="200" height="40" viewBox="0 0 200 40">
  <defs>
    <clipPath id="clip-Alb_2">
      <rect width="200" height="40"/>
    </clipPath>
  </defs>
  <g id="Alb_2" data-name="Alb – 2" clip-path="url(#clip-Alb_2)">
    <rect width="200" height="40" fill="#fff"/>
    <path id="Rectangle_13" data-name="Rectangle 13" d="M2,0H58a2,2,0,0,1,2,2V30a0,0,0,0,1,0,0H0a0,0,0,0,1,0,0V2A2,2,0,0,1,2,0Z" transform="translate(6 5)" fill="#f51010"/>
    <rect id="Rectangle_16" data-name="Rectangle 16" width="39" height="8" transform="translate(17 29)" fill="#fff"/>
    <rect id="Rectangle_17" data-name="Rectangle 17" width="39" height="8" transform="translate(84 3)" fill="#fff"/>
    <rect id="Rectangle_18" data-name="Rectangle 18" width="39" height="8" transform="translate(84 29)" fill="#fff"/>
    <rect id="Rectangle_19" data-name="Rectangle 19" width="8" height="8" transform="translate(32 12)" fill="#fff"/>
    <path id="Subtraction_5" data-name="Subtraction 5" d="M708-109H680v-6H664v-22a2,2,0,0,1,2-2h56a2,2,0,0,1,2,2v22H708v6Z" transform="translate(-597 144)" fill="#f51010"/>
  </g>
</svg>
